<svg width="752" height="612" viewBox="0 0 752 612" fill="none" xmlns="http://www.w3.org/2000/svg">
<g opacity="0.3">
<path opacity="0.3" d="M532.862 30.9231C534.283 31.6922 535.697 32.4748 537.102 33.2708" stroke="#2196F3" stroke-width="4" stroke-miterlimit="10"/>
<path opacity="0.3" d="M545.357 38.071C630.751 89.9699 687.785 183.788 687.785 290.91C687.803 315.792 684.682 340.577 678.496 364.68" stroke="#787878" stroke-width="4" stroke-miterlimit="10" stroke-dasharray="11.85 11.85"/>
<path opacity="0.3" d="M677.285 369.302C676.859 370.857 676.42 372.408 675.968 373.957" stroke="#2196F3" stroke-width="4" stroke-miterlimit="10"/>
</g>
<g opacity="0.07" filter="url(#filter0_d)">
<path d="M95.7164 290.91C95.7164 162.409 177.79 53.0525 292.432 12.2547" stroke="black" stroke-width="4" stroke-miterlimit="10" stroke-dasharray="12 12"/>
</g>
<path opacity="0.5" d="M532.862 550.904C489.552 574.396 441.035 586.664 391.751 586.587C295.202 586.587 209.445 540.424 155.408 468.986" stroke="#FCC231" stroke-width="4" stroke-miterlimit="10" stroke-dasharray="12 12"/>
<g opacity="0.5">
<path opacity="0.5" d="M374.805 179.254C376.42 179.017 378.035 178.813 379.651 178.641" stroke="#2196F3" stroke-width="4" stroke-miterlimit="10"/>
<path opacity="0.5" d="M388.924 178.004C389.866 178.004 390.808 178.004 391.751 178.004C411.46 178.003 430.827 183.148 447.932 192.928C465.037 202.708 479.285 216.784 489.265 233.759C499.245 250.734 504.61 270.02 504.827 289.704C505.044 309.389 500.107 328.788 490.504 345.979" stroke="#2196F3" stroke-width="4" stroke-miterlimit="10" stroke-dasharray="11.56 11.56"/>
<path opacity="0.5" d="M488.146 349.997C487.3 351.373 486.425 352.718 485.521 354.03" stroke="#2196F3" stroke-width="4" stroke-miterlimit="10"/>
</g>
<path d="M680.306 465.804L675.52 463.281C674.928 462.969 674.195 463.195 673.883 463.786L665.87 478.947C665.558 479.538 665.784 480.27 666.376 480.582L671.162 483.105C671.753 483.417 672.486 483.191 672.799 482.6L680.812 467.44C681.124 466.849 680.898 466.116 680.306 465.804Z" fill="#F2F2F2"/>
<path d="M173.7 58.5787L124.677 79.3126C123.855 79.66 123.471 80.6069 123.819 81.4275L123.935 81.7024C124.283 82.523 125.231 82.9065 126.053 82.559L175.077 61.8252C175.898 61.4777 176.282 60.5308 175.934 59.7102L175.818 59.4354C175.47 58.6148 174.522 58.2312 173.7 58.5787Z" fill="#DBDBDB"/>
<path d="M187.606 56.5256C188.682 56.0704 189.185 54.83 188.729 53.755C188.274 52.6801 187.032 52.1777 185.956 52.6328C184.879 53.088 184.376 54.3285 184.832 55.4034C185.288 56.4784 186.53 56.9808 187.606 56.5256Z" fill="#DBDBDB"/>
<path opacity="0.3" d="M746 31C749.314 31 752 28.3137 752 25C752 21.6863 749.314 19 746 19C742.686 19 740 21.6863 740 25C740 28.3137 742.686 31 746 31Z" fill="#FCCC54"/>
<path opacity="0.3" d="M623.974 288.167C630.22 288.167 635.283 283.11 635.283 276.872C635.283 270.634 630.22 265.577 623.974 265.577C617.729 265.577 612.666 270.634 612.666 276.872C612.666 283.11 617.729 288.167 623.974 288.167Z" fill="#FCC231"/>
<path opacity="0.5" d="M17 77C20.3137 77 23 74.5376 23 71.5C23 68.4624 20.3137 66 17 66C13.6863 66 11 68.4624 11 71.5C11 74.5376 13.6863 77 17 77Z" fill="#383D3D"/>
<path opacity="0.3" d="M31 42C32.6569 42 34 40.8807 34 39.5C34 38.1193 32.6569 37 31 37C29.3431 37 28 38.1193 28 39.5C28 40.8807 29.3431 42 31 42Z" fill="#FCC231"/>
<g opacity="0.2">
<path opacity="0.2" d="M127.46 102.934L208.056 68.8489C212.567 66.925 216.239 63.4525 218.41 59.0593C220.58 54.6661 221.105 49.6422 219.889 44.8962L261.084 27.4621L260.47 26.018C259.978 24.8547 259.261 23.7997 258.36 22.9134C257.46 22.027 256.393 21.3267 255.221 20.8524C254.05 20.3781 252.796 20.1391 251.531 20.1492C250.267 20.1593 249.017 20.4182 247.853 20.9112L204.518 39.2408C205.734 43.9868 205.209 49.0107 203.039 53.4039C200.868 57.7971 197.196 61.2696 192.685 63.1935L112.113 97.2871C109.957 98.197 107.658 98.7266 105.32 98.8523C108.212 101.613 111.847 103.469 115.78 104.194C119.713 104.92 123.773 104.482 127.46 102.934Z" fill="white"/>
<path opacity="0.2" d="M54.207 125.403C53.7135 124.24 53.4543 122.992 53.4441 121.729C53.434 120.466 53.6733 119.214 54.1481 118.043C54.623 116.873 55.3242 115.808 56.2116 114.908C57.099 114.009 58.1553 113.293 59.32 112.801L96.1122 97.2387C92.1869 95.5764 88.8799 92.7303 86.6537 89.0985L43.9649 107.154C42.8003 107.645 41.744 108.361 40.8566 109.261C39.9692 110.16 39.268 111.226 38.7931 112.396C38.3183 113.566 38.079 114.819 38.0891 116.082C38.0992 117.344 38.3585 118.593 38.852 119.755L200.77 501.611C201.262 502.774 201.979 503.829 202.88 504.716C203.78 505.602 204.847 506.302 206.019 506.777C207.191 507.251 208.444 507.49 209.709 507.48C210.973 507.47 212.223 507.211 213.387 506.718L215.511 505.822L54.207 125.403Z" fill="white"/>
</g>
<defs>
<filter id="filter0_d" x="89.7164" y="10.3705" width="207.386" height="288.539" filterUnits="userSpaceOnUse" color-interpolation-filters="sRGB">
<feFlood flood-opacity="0" result="BackgroundImageFix"/>
<feColorMatrix in="SourceAlpha" type="matrix" values="0 0 0 0 0 0 0 0 0 0 0 0 0 0 0 0 0 0 127 0"/>
<feOffset dy="4"/>
<feGaussianBlur stdDeviation="2"/>
<feColorMatrix type="matrix" values="0 0 0 0 0 0 0 0 0 0 0 0 0 0 0 0 0 0 0.25 0"/>
<feBlend mode="normal" in2="BackgroundImageFix" result="effect1_dropShadow"/>
<feBlend mode="normal" in="SourceGraphic" in2="effect1_dropShadow" result="shape"/>
</filter>
</defs>
</svg>
