<svg width="828" height="709" viewBox="0 0 828 709" fill="none" xmlns="http://www.w3.org/2000/svg">
<path d="M567.228 652.416C574.597 652.416 580.571 646.438 580.571 639.064C580.571 631.689 574.597 625.711 567.228 625.711C559.859 625.711 553.885 631.689 553.885 639.064C553.885 646.438 559.859 652.416 567.228 652.416Z" fill="url(#paint0_linear)"/>
<path d="M567.228 650.931C573.778 650.931 579.088 645.618 579.088 639.063C579.088 632.509 573.778 627.196 567.228 627.196C560.678 627.196 555.368 632.509 555.368 639.063C555.368 645.618 560.678 650.931 567.228 650.931Z" fill="#6C63FF"/>
<g opacity="0.5">
<path opacity="0.5" d="M626.106 200H623.307V215.873H626.106V200Z" fill="#47E6B1"/>
<path opacity="0.5" d="M632.638 209.337V206.536H616.775V209.337H632.638Z" fill="#47E6B1"/>
</g>
<g opacity="0.5">
<path opacity="0.5" d="M165.158 126.053H162.358V141.927H165.158V126.053Z" fill="#47E6B1"/>
<path opacity="0.5" d="M171.689 135.391V132.59H155.827V135.391H171.689Z" fill="#47E6B1"/>
</g>
<g opacity="0.5">
<path opacity="0.5" d="M376.97 669.484H374.171V685.358H376.97V669.484Z" fill="#47E6B1"/>
<path opacity="0.5" d="M383.502 678.822V676.021H367.639V678.822H383.502Z" fill="#47E6B1"/>
</g>
<path opacity="0.5" d="M737.042 549.92C736.27 549.585 735.648 548.978 735.295 548.213C734.942 547.448 734.883 546.58 735.129 545.775C735.167 545.653 735.192 545.528 735.204 545.401C735.23 545.031 735.135 544.662 734.934 544.35C734.734 544.038 734.437 543.799 734.089 543.67C733.741 543.541 733.361 543.527 733.005 543.632C732.649 543.738 732.337 543.955 732.115 544.253C732.04 544.361 731.978 544.476 731.929 544.598C731.584 545.363 730.971 545.975 730.206 546.319C729.441 546.663 728.577 546.715 727.776 546.466C727.655 546.426 727.53 546.401 727.403 546.391C727.034 546.367 726.667 546.463 726.357 546.665C726.046 546.867 725.81 547.164 725.682 547.511C725.554 547.859 725.541 548.238 725.646 548.593C725.751 548.948 725.968 549.26 726.265 549.482C726.368 549.561 726.481 549.627 726.601 549.678C727.372 550.014 727.992 550.622 728.345 551.387C728.697 552.151 728.757 553.018 728.514 553.823C728.465 553.945 728.44 554.075 728.439 554.206C728.415 554.576 728.511 554.943 728.713 555.254C728.915 555.564 729.211 555.801 729.558 555.929C729.906 556.057 730.285 556.069 730.64 555.964C730.994 555.859 731.306 555.642 731.527 555.345C731.599 555.239 731.661 555.126 731.714 555.009C732.057 554.245 732.668 553.633 733.431 553.289C734.195 552.945 735.058 552.892 735.857 553.142C735.981 553.181 736.11 553.206 736.239 553.217C736.609 553.24 736.976 553.144 737.286 552.942C737.596 552.74 737.833 552.444 737.961 552.096C738.089 551.749 738.101 551.369 737.996 551.014C737.891 550.659 737.674 550.348 737.378 550.126C737.272 550.048 737.159 549.98 737.042 549.92Z" fill="#4D8AF0"/>
<path opacity="0.5" d="M666.127 644.227C665.355 643.892 664.733 643.284 664.38 642.519C664.027 641.755 663.968 640.887 664.214 640.081C664.252 639.96 664.277 639.835 664.289 639.708C664.315 639.337 664.22 638.969 664.019 638.657C663.818 638.344 663.522 638.106 663.174 637.977C662.826 637.847 662.446 637.834 662.09 637.939C661.734 638.044 661.422 638.262 661.2 638.559C661.125 638.667 661.063 638.783 661.013 638.905C660.669 639.67 660.056 640.282 659.291 640.626C658.526 640.97 657.662 641.022 656.861 640.772C656.74 640.733 656.615 640.708 656.488 640.698C656.119 640.674 655.752 640.77 655.441 640.972C655.131 641.174 654.894 641.47 654.766 641.818C654.638 642.165 654.626 642.545 654.731 642.9C654.836 643.255 655.053 643.567 655.35 643.788C655.453 643.868 655.566 643.934 655.685 643.984C656.456 644.321 657.077 644.929 657.43 645.693C657.782 646.457 657.842 647.325 657.598 648.13C657.55 648.252 657.525 648.382 657.524 648.513C657.5 648.882 657.596 649.25 657.798 649.56C657.999 649.871 658.296 650.107 658.643 650.236C658.99 650.364 659.37 650.376 659.724 650.271C660.079 650.166 660.391 649.949 660.612 649.652C660.683 649.545 660.746 649.433 660.799 649.316C661.142 648.552 661.753 647.94 662.516 647.596C663.28 647.251 664.142 647.199 664.942 647.448C665.066 647.488 665.194 647.513 665.324 647.523C665.694 647.547 666.061 647.451 666.371 647.249C666.681 647.047 666.918 646.75 667.046 646.403C667.174 646.055 667.186 645.676 667.081 645.321C666.976 644.966 666.759 644.654 666.463 644.432C666.357 644.355 666.244 644.286 666.127 644.227Z" fill="#4D8AF0"/>
<path opacity="0.5" d="M90.4075 599.408C89.6353 599.073 89.0133 598.465 88.6605 597.7C88.3077 596.936 88.2486 596.068 88.4947 595.262C88.533 595.141 88.558 595.016 88.5693 594.889C88.5954 594.518 88.5009 594.15 88.3 593.837C88.0991 593.525 87.8025 593.287 87.4547 593.157C87.107 593.028 86.7267 593.015 86.3708 593.12C86.015 593.225 85.7027 593.443 85.4808 593.74C85.406 593.848 85.3434 593.964 85.2942 594.086C84.9493 594.851 84.3367 595.463 83.5717 595.807C82.8068 596.151 81.9425 596.203 81.1419 595.953C81.0208 595.914 80.8955 595.889 80.7687 595.878C80.3994 595.855 80.0323 595.951 79.7221 596.153C79.4119 596.355 79.1752 596.651 79.0472 596.999C78.9192 597.346 78.9069 597.726 79.0119 598.081C79.117 598.436 79.3339 598.747 79.6303 598.969C79.7334 599.049 79.8463 599.115 79.9662 599.165C80.7286 599.51 81.3389 600.122 81.6826 600.885C82.0262 601.648 82.0795 602.511 81.8324 603.311C81.7844 603.433 81.7591 603.563 81.7577 603.694C81.7339 604.063 81.83 604.431 82.0318 604.741C82.2335 605.051 82.5301 605.288 82.8773 605.416C83.2245 605.544 83.6038 605.557 83.9586 605.452C84.3134 605.346 84.6247 605.129 84.8463 604.833C84.9175 604.726 84.9799 604.614 85.0329 604.497C85.3759 603.732 85.9869 603.12 86.7503 602.776C87.5136 602.432 88.3765 602.38 89.1758 602.629C89.3002 602.668 89.4285 602.694 89.5584 602.704C89.9277 602.728 90.2948 602.632 90.605 602.43C90.9152 602.228 91.1519 601.931 91.2799 601.584C91.4078 601.236 91.4202 600.857 91.3151 600.502C91.2101 600.147 90.9932 599.835 90.6968 599.613C90.6055 599.538 90.5088 599.469 90.4075 599.408Z" fill="#4D8AF0"/>
<path opacity="0.5" d="M460.016 57.8913C463.108 57.8913 465.614 55.383 465.614 52.2889C465.614 49.1948 463.108 46.6865 460.016 46.6865C456.924 46.6865 454.417 49.1948 454.417 52.2889C454.417 55.383 456.924 57.8913 460.016 57.8913Z" fill="#F55F44"/>
<path opacity="0.5" d="M5.59857 73.7648C8.69057 73.7648 11.1971 71.2565 11.1971 68.1624C11.1971 65.0683 8.69057 62.5601 5.59857 62.5601C2.50656 62.5601 0 65.0683 0 68.1624C0 71.2565 2.50656 73.7648 5.59857 73.7648Z" fill="#4D8AF0"/>
<path opacity="0.5" d="M786.599 389.365C789.691 389.365 792.197 386.857 792.197 383.763C792.197 380.669 789.691 378.161 786.599 378.161C783.507 378.161 781 380.669 781 383.763C781 386.857 783.507 389.365 786.599 389.365Z" fill="#47E6B1"/>
<path opacity="0.5" d="M55.0526 286.655C58.1446 286.655 60.6511 284.147 60.6511 281.053C60.6511 277.959 58.1446 275.45 55.0526 275.45C51.9606 275.45 49.454 277.959 49.454 281.053C49.454 284.147 51.9606 286.655 55.0526 286.655Z" fill="#F55F44"/>
<path d="M764.638 118.671L733.661 113.595C733.091 113.502 732.554 113.888 732.461 114.458C732.367 115.028 732.753 115.566 733.323 115.659L764.3 120.735C764.869 120.829 765.407 120.442 765.5 119.872C765.593 119.302 765.207 118.765 764.638 118.671Z" fill="#DBDBDB"/>
<path d="M772.565 122.036C773.261 122.036 773.825 121.472 773.825 120.776C773.825 120.079 773.261 119.515 772.565 119.515C771.869 119.515 771.305 120.079 771.305 120.776C771.305 121.472 771.869 122.036 772.565 122.036Z" fill="#DBDBDB"/>
<g opacity="0.5">
<path opacity="0.5" d="M651.263 414.081C636.534 413.578 622.161 418.673 611.033 428.342C599.906 438.012 592.85 451.538 591.283 466.202H574.488C573.587 466.202 572.723 466.56 572.086 467.197C571.449 467.835 571.091 468.699 571.091 469.601V475.203C571.091 476.105 571.449 476.969 572.086 477.606C572.723 478.244 573.587 478.602 574.488 478.602H591.283C592.473 489.732 596.836 500.284 603.852 509.002C610.868 517.719 620.241 524.233 630.854 527.768C641.467 531.303 652.873 531.709 663.71 528.937C674.547 526.166 684.359 520.335 691.977 512.138C699.594 503.942 704.695 493.726 706.672 482.709C708.648 471.692 707.417 460.339 703.125 450.002C698.832 439.666 691.66 430.783 682.463 424.412C673.266 418.042 662.432 414.452 651.253 414.072L651.263 414.081Z" fill="url(#paint1_linear)"/>
</g>
<path opacity="0.2" d="M668.516 453.737C668.516 453.737 679.489 470.805 676.353 484.083C676.353 484.083 688.904 463.214 668.516 453.737Z" fill="white"/>
<path opacity="0.2" d="M673.181 496.922C675.114 496.922 676.68 495.354 676.68 493.42C676.68 491.487 675.114 489.919 673.181 489.919C671.248 489.919 669.682 491.487 669.682 493.42C669.682 495.354 671.248 496.922 673.181 496.922Z" fill="white"/>
<defs>
<linearGradient id="paint0_linear" x1="16776.6" y1="19284.5" x2="16776.6" y2="18521" gradientUnits="userSpaceOnUse">
<stop stop-color="#808080" stop-opacity="0.25"/>
<stop offset="0.54" stop-color="#808080" stop-opacity="0.12"/>
<stop offset="1" stop-color="#808080" stop-opacity="0.1"/>
</linearGradient>
<linearGradient id="paint1_linear" x1="115437" y1="74964.3" x2="115437" y2="60375.9" gradientUnits="userSpaceOnUse">
<stop stop-color="#808080" stop-opacity="0.25"/>
<stop offset="0.54" stop-color="#808080" stop-opacity="0.12"/>
<stop offset="1" stop-color="#808080" stop-opacity="0.1"/>
</linearGradient>
</defs>
</svg>
