<svg width="224" height="47" viewBox="0 0 224 47" fill="none" xmlns="http://www.w3.org/2000/svg">
<path d="M60.6355 10.448C55.8475 10.448 52.8595 12.356 51.2395 13.976C49.0795 16.136 47.5315 19.628 47.5315 23.084C47.5315 26.612 48.9715 29.852 51.2755 32.012C53.0755 33.74 56.1355 35.54 60.6355 35.54C64.6675 35.54 67.6915 34.172 69.9235 32.012C72.5155 29.492 73.6675 26.216 73.6675 23.012C73.6675 19.304 72.1915 16.136 69.9235 13.94C67.5115 11.6 64.3795 10.448 60.6355 10.448ZM60.5995 15.56C62.7955 15.56 64.7035 16.46 65.8915 17.612C66.9715 18.692 67.9795 20.528 67.9795 23.012C67.9795 25.784 66.8275 27.476 65.8915 28.376C64.7395 29.528 63.0115 30.428 60.5635 30.428C58.6915 30.428 56.9635 29.924 55.4155 28.448C53.9395 27.008 53.2195 25.244 53.2195 23.048C53.2195 20.384 54.2995 18.62 55.3435 17.612C56.6395 16.316 58.5115 15.56 60.5995 15.56ZM92.6961 18.944H76.8561V23.264H83.9481L75.5961 35H91.9761V30.68H84.3801L92.6961 18.944ZM120.071 35H125.831L116.363 10.988H111.287L101.603 35H107.363L109.199 30.464H118.271L120.071 35ZM110.819 26.216L113.807 18.152L116.759 26.216H110.819ZM140.115 20.816C139.539 19.952 138.243 18.404 135.327 18.404C132.339 18.404 130.467 19.7 129.495 20.708C128.127 22.112 127.119 24.38 127.119 27.116C127.119 29.888 128.163 31.832 129.459 33.164C130.935 34.64 132.843 35.432 135.327 35.432C138.279 35.432 139.503 34.028 140.115 33.02V34.856C140.115 35.54 140.079 37.232 139.071 38.204C138.711 38.528 137.955 39.068 136.479 39.068C135.723 39.068 134.859 38.924 134.247 38.528C133.815 38.24 133.311 37.772 133.095 36.944H127.443C127.803 38.96 128.847 40.328 129.855 41.192C131.871 42.92 134.427 43.244 136.551 43.244C138.315 43.244 141.339 42.992 143.319 40.868C145.191 38.852 145.299 36.296 145.299 34.028V18.944H140.115V20.816ZM136.515 22.904C137.451 22.904 138.567 23.228 139.323 23.912C140.007 24.56 140.547 25.604 140.547 26.864C140.547 28.052 140.079 29.168 139.287 29.924C138.747 30.428 137.847 30.968 136.479 30.968C135.255 30.968 134.283 30.572 133.563 29.816C132.843 29.06 132.447 27.98 132.447 26.936C132.447 25.964 132.879 24.704 133.671 23.948C134.319 23.336 135.363 22.904 136.515 22.904ZM153.965 24.776C154.109 24.056 154.469 23.48 154.865 23.048C155.369 22.544 156.161 22.004 157.493 22.004C158.537 22.004 159.365 22.364 159.941 22.904C160.697 23.624 160.949 24.632 160.985 24.776H153.965ZM165.773 27.332C165.773 25.352 165.413 22.832 163.505 20.816C161.525 18.728 158.933 18.404 157.133 18.404C155.333 18.404 152.921 18.764 150.977 20.708C149.357 22.364 148.529 24.74 148.529 27.044C148.529 29.708 149.537 31.832 150.941 33.236C152.813 35.108 154.937 35.54 157.349 35.54C159.149 35.54 160.877 35.288 162.425 34.352C163.361 33.776 164.801 32.588 165.521 30.32L160.625 29.816C160.193 30.716 159.581 31.112 159.509 31.148C158.969 31.472 158.177 31.616 157.421 31.616C156.629 31.616 155.549 31.472 154.757 30.608C154.109 29.888 153.785 28.736 153.785 27.872H165.773V27.332ZM169.008 35H174.192V26.756C174.192 25.712 174.336 24.56 175.2 23.696C175.596 23.264 176.28 22.832 177.36 22.832C178.296 22.832 178.944 23.156 179.34 23.552C180.168 24.38 180.204 25.712 180.204 26.756V35H185.388V24.848C185.388 23.552 185.28 21.644 183.768 20.132C182.4 18.764 180.564 18.512 179.16 18.512C177.648 18.512 175.776 18.836 174.192 20.852V18.944H169.008V35ZM201.494 19.304C200.126 18.656 198.83 18.404 197.426 18.404C195.23 18.404 193.106 18.98 191.306 20.672C189.794 22.112 188.642 24.272 188.642 27.008C188.642 29.924 189.938 31.94 191.162 33.128C192.638 34.568 194.69 35.54 197.39 35.54C198.83 35.54 200.126 35.324 201.494 34.568V29.888C200.306 30.896 199.082 31.148 198.182 31.148C197.03 31.148 195.842 30.716 195.05 29.852C194.402 29.168 193.97 28.16 193.97 26.972C193.97 25.676 194.474 24.632 195.158 23.948C195.518 23.588 196.49 22.796 198.11 22.796C198.938 22.796 200.234 22.976 201.494 24.02V19.304ZM205.01 43.244H210.842L223.766 18.944H217.934L213.506 27.656L208.97 18.944H202.994L210.662 32.948L205.01 43.244Z" fill="white"/>
<circle cx="17" cy="23" r="16" fill="#0A0A0A" stroke="#F5C231" stroke-width="2"/>
<path d="M22.5924 17.776H12.796V19.9477H17.9837L11.3965 27.9344H22.0856V25.7628H16.0534L22.5924 17.776Z" fill="#FCC231"/>
</svg>
