<svg width="24" height="18" viewBox="0 0 24 18" fill="none" xmlns="http://www.w3.org/2000/svg">
<path d="M1.94286 3.13571H22.0571C22.7138 3.13571 23.25 2.5995 23.25 1.94286C23.25 1.28622 22.7138 0.75 22.0571 0.75H1.94286C1.28621 0.75 0.75 1.28621 0.75 1.94286C0.75 2.5995 1.28621 3.13571 1.94286 3.13571Z" fill="black" stroke="#0A0A0A" stroke-width="0.5"/>
<path d="M1.94286 10.2071H22.0571C22.7138 10.2071 23.25 9.67092 23.25 9.01428C23.25 8.35764 22.7138 7.82142 22.0571 7.82142H1.94286C1.28621 7.82142 0.75 8.35764 0.75 9.01428C0.75 9.67092 1.28621 10.2071 1.94286 10.2071Z" fill="black" stroke="#0A0A0A" stroke-width="0.5"/>
<path d="M1.94286 17.2786H22.0571C22.7138 17.2786 23.25 16.7423 23.25 16.0857C23.25 15.4291 22.7138 14.8928 22.0571 14.8928H1.94286C1.28621 14.8928 0.75 15.4291 0.75 16.0857C0.75 16.7423 1.28621 17.2786 1.94286 17.2786Z" fill="black" stroke="#0A0A0A" stroke-width="0.5"/>
</svg>
